<svg id="Layer_1" data-name="Layer 1" xmlns="http://www.w3.org/2000/svg" xmlns:xlink="http://www.w3.org/1999/xlink" viewBox="0 0 296.1 105.39"><defs><style>.cls-1{fill:url(#linear-gradient);}.cls-2{font-size:90px;font-family:Mont-HeavyDEMO, Mont;font-weight:800;}.cls-2,.cls-3{fill:#fff;}</style><linearGradient id="linear-gradient" x1="32.94" y1="24.33" x2="42.61" y2="40.59" gradientUnits="userSpaceOnUse"><stop offset="0" stop-color="aqua"/><stop offset="0.22" stop-color="#3de0eb"/><stop offset="0.6" stop-color="#a4aaca"/><stop offset="0.87" stop-color="#e688b4"/><stop offset="1" stop-color="#ff7bac"/></linearGradient></defs><title>logo</title><rect class="cls-1" x="31.67" y="27.77" width="16.36" height="16.36" rx="8.18"/><text class="cls-2" transform="translate(53.19 76.5)">class</text><path class="cls-3" d="M36.91,75.27a28.28,28.28,0,0,1-9.81-1.62,22.23,22.23,0,0,1-7.56-4.55A19.82,19.82,0,0,1,14.68,62,24.07,24.07,0,0,1,13,52.77V25.05H29.71V52a8.87,8.87,0,0,0,1.89,6,6.68,6.68,0,0,0,5.31,2.16,6.68,6.68,0,0,0,5.31-2.16,8.87,8.87,0,0,0,1.89-6v-4H60.85v4.72A24.07,24.07,0,0,1,59.14,62a19.82,19.82,0,0,1-4.86,7.06,22.23,22.23,0,0,1-7.56,4.55A28.28,28.28,0,0,1,36.91,75.27Z" transform="translate(-12.97 2.53)"/></svg>